<svg width="23" height="23" viewBox="0 0 23 23" fill="none" xmlns="http://www.w3.org/2000/svg">
<path fill-rule="evenodd" clip-rule="evenodd" d="M11.3165 17.5238C10.1008 17.5238 9.12605 16.5381 9.12605 15.3333C9.12605 14.1176 10.1008 13.1429 11.3165 13.1429C12.5263 13.1429 13.507 14.1236 13.507 15.3333C13.507 16.5431 12.5263 17.5238 11.3165 17.5238ZM17.888 20.8096V9.85715H4.74512V20.8096H17.888ZM17.888 7.66668C19.0977 7.66668 20.0784 8.64739 20.0784 9.85715V20.8095C20.0784 22.0194 19.0977 23 17.888 23H4.7451C3.52939 23 2.55462 22.0143 2.55462 20.8095V9.85715C2.55462 8.64144 3.52939 7.66668 4.7451 7.66668H5.84034V5.47619C5.84034 2.45177 8.29212 0 11.3165 0C12.7689 0 14.1618 0.576955 15.1888 1.60394C16.2157 2.63093 16.7927 4.02381 16.7927 5.47619V7.66668H17.888ZM11.3165 2.19048C9.50186 2.19048 8.0308 3.66154 8.0308 5.4762V7.66667H14.6022V5.4762C14.6022 3.66154 13.1312 2.19048 11.3165 2.19048Z" fill="#D9D9D9"/>
<mask id="mask0_3_6230" style="mask-type:alpha" maskUnits="userSpaceOnUse" x="2" y="0" width="19" height="23">
<path fill-rule="evenodd" clip-rule="evenodd" d="M11.3165 17.5238C10.1008 17.5238 9.12605 16.5381 9.12605 15.3333C9.12605 14.1176 10.1008 13.1429 11.3165 13.1429C12.5263 13.1429 13.507 14.1236 13.507 15.3333C13.507 16.5431 12.5263 17.5238 11.3165 17.5238ZM17.888 20.8096V9.85715H4.74512V20.8096H17.888ZM17.888 7.66668C19.0977 7.66668 20.0784 8.64739 20.0784 9.85715V20.8095C20.0784 22.0194 19.0977 23 17.888 23H4.7451C3.52939 23 2.55462 22.0143 2.55462 20.8095V9.85715C2.55462 8.64144 3.52939 7.66668 4.7451 7.66668H5.84034V5.47619C5.84034 2.45177 8.29212 0 11.3165 0C12.7689 0 14.1618 0.576955 15.1888 1.60394C16.2157 2.63093 16.7927 4.02381 16.7927 5.47619V7.66668H17.888ZM11.3165 2.19048C9.50186 2.19048 8.0308 3.66154 8.0308 5.4762V7.66667H14.6022V5.4762C14.6022 3.66154 13.1312 2.19048 11.3165 2.19048Z" fill="#D9D9D9"/>
</mask>
<g mask="url(#mask0_3_6230)">
</g>
</svg>
