<svg width="18" height="18" viewBox="0 0 18 18" fill="none" xmlns="http://www.w3.org/2000/svg">
<path fill-rule="evenodd" clip-rule="evenodd" d="M14.465 15C13.7536 16.0629 12.9993 17.1 11.8507 17.1172C10.7022 17.1429 10.3336 16.44 9.03074 16.44C7.71931 16.44 7.31645 17.1 6.22788 17.1429C5.10502 17.1857 4.25645 16.0114 3.53645 14.9743C2.07074 12.8571 0.947883 8.95714 2.45645 6.33428C3.20216 5.03143 4.53931 4.20857 5.98788 4.18286C7.08502 4.16571 8.13074 4.92857 8.80788 4.92857C9.47645 4.92857 10.745 4.01143 12.0736 4.14857C12.6307 4.17429 14.1907 4.37143 15.1936 5.84571C15.1164 5.89714 13.3336 6.94285 13.3507 9.11143C13.3764 11.7 15.6221 12.5657 15.6478 12.5743C15.6221 12.6343 15.2878 13.8086 14.465 15ZM9.57074 1.28571C10.1965 0.574286 11.2336 0.0342857 12.0907 0C12.2022 1.00286 11.7993 2.01429 11.1993 2.73429C10.6079 3.46286 9.63074 4.02857 8.67074 3.95143C8.54217 2.96571 9.02217 1.93714 9.57074 1.28571Z" fill="#D9D9D9"/>
</svg>
