<svg width="42" height="41" viewBox="0 0 42 41" fill="none" xmlns="http://www.w3.org/2000/svg">
<path d="M9.59179 26.2855C9.15698 25.7994 8.90077 25.1798 8.8655 24.5286V16.4084C8.90067 15.7572 9.15689 15.1374 9.59179 14.6516L10.1662 14.077C10.3588 13.8839 10.467 13.6223 10.467 13.3495C10.467 13.0768 10.3588 12.8151 10.1662 12.6221L4.07343 6.52627C3.88022 6.33378 3.61866 6.22571 3.34597 6.22571C3.07328 6.22571 2.81171 6.33378 2.61851 6.52627L0.299292 8.84635C0.107564 9.03988 0 9.30131 0 9.57379C0 9.84626 0.107564 10.1077 0.299292 10.3012L4.64781 14.6514C5.0835 15.1368 5.34006 15.7568 5.37489 16.4082V24.5284C5.34015 25.1796 5.08356 25.7991 4.64781 26.2841L0.299292 30.6359C0.107564 30.8295 0 31.091 0 31.3633C0 31.6358 0.107564 31.8972 0.299292 32.0908L2.61851 34.4108C2.81173 34.6032 3.0733 34.7113 3.34597 34.7113C3.61864 34.7113 3.8802 34.6032 4.07343 34.4108L10.1662 28.3146C10.3588 28.1214 10.467 27.8599 10.467 27.5872C10.467 27.3143 10.3588 27.0528 10.1662 26.8598L9.59179 26.2855Z" fill="#666AEC"/>
<path d="M26.3349 31.4043C25.8493 31.8392 25.2301 32.0959 24.5791 32.1318H16.4642C15.8128 32.0959 15.193 31.8394 14.7068 31.4043L14.1337 30.8282C13.9398 30.6363 13.6782 30.5288 13.4056 30.5288C13.133 30.5288 12.8714 30.6363 12.6775 30.8282L6.58546 36.924C6.39313 37.1176 6.28516 37.3795 6.28516 37.6523C6.28516 37.9252 6.39313 38.1871 6.58546 38.3805L8.90467 40.7007C9.09832 40.8925 9.35981 41 9.63233 41C9.90484 41 10.1663 40.8925 10.36 40.7007L14.7076 36.3483C15.1936 35.9135 15.8132 35.6571 16.4644 35.6211H24.5816C25.2326 35.6569 25.8518 35.9133 26.3374 36.3483L30.6869 40.7007C30.8805 40.8925 31.1418 41 31.4143 41C31.6866 41 31.9481 40.8925 32.1415 40.7007L34.4607 38.3805C34.6531 38.1871 34.761 37.9252 34.761 37.6523C34.761 37.3795 34.6531 37.1176 34.4607 36.924L28.3642 30.8278C28.1708 30.6359 27.9096 30.5284 27.6373 30.5284C27.365 30.5284 27.1035 30.6359 26.9101 30.8278L26.3349 31.4043Z" fill="#666AEC"/>
<path d="M31.599 14.7142C32.0349 15.2006 32.2919 15.8213 32.3273 16.4736V24.5907C32.2917 25.2427 32.0347 25.8629 31.599 26.3487L31.0244 26.9246C30.8323 27.118 30.7246 27.3795 30.7246 27.6522C30.7246 27.9247 30.8323 28.1862 31.0244 28.3796L37.1189 34.4746C37.3121 34.6671 37.5738 34.775 37.8462 34.775C38.1189 34.775 38.3804 34.6671 38.5736 34.4746L40.8928 32.1533C41.0852 31.9601 41.1933 31.6984 41.1933 31.4257C41.1933 31.1531 41.0852 30.8914 40.8928 30.6982L36.5453 26.3479C36.1094 25.8621 35.8521 25.2419 35.8166 24.59L35.8177 16.4728C35.8527 15.8205 36.1094 15.1998 36.5453 14.7134L40.8928 10.3633C41.0852 10.1704 41.1933 9.90908 41.1933 9.63661C41.1933 9.36413 41.0852 9.10277 40.8928 8.90994L38.5736 6.58851C38.4781 6.49295 38.3647 6.41714 38.24 6.36543C38.1151 6.31371 37.9814 6.28708 37.8462 6.28708C37.7113 6.28708 37.5774 6.31371 37.4527 6.36543C37.3278 6.41714 37.2144 6.49295 37.1189 6.58851L31.0244 12.6834C30.8323 12.8767 30.7246 13.1383 30.7246 13.4109C30.7246 13.6835 30.8323 13.945 31.0244 14.1384L31.599 14.7142Z" fill="#666AEC"/>
<path d="M14.8547 9.59553C15.3402 9.15996 15.9598 8.90329 16.6109 8.86799H24.7266C25.3775 8.9039 25.9968 9.1605 26.4825 9.59553L27.0583 10.1713C27.1537 10.2668 27.267 10.3426 27.3918 10.3943C27.5165 10.446 27.65 10.4726 27.7851 10.4726C27.9201 10.4726 28.0539 10.446 28.1785 10.3943C28.3032 10.3426 28.4166 10.2668 28.5121 10.1713L34.6056 4.07509C34.7979 3.88156 34.9058 3.61976 34.9058 3.34688C34.9058 3.07401 34.7979 2.81221 34.6056 2.61866L32.2864 0.3013C32.0934 0.108372 31.8317 0 31.5589 0C31.286 0 31.0243 0.108372 30.8313 0.3013L26.4828 4.65145C25.997 5.08646 25.3776 5.34305 24.7267 5.37897H16.6109C15.9598 5.34367 15.3402 5.087 14.8547 4.65145L10.5062 0.3013C10.3125 0.109546 10.0511 0.00198249 9.77861 0.00198249C9.50616 0.00198249 9.2447 0.109546 9.05106 0.3013L6.73185 2.62137C6.53958 2.81488 6.43164 3.07664 6.43164 3.34949C6.43164 3.62233 6.53958 3.88409 6.73185 4.0776L12.824 10.1711C13.0171 10.364 13.2787 10.4724 13.5516 10.4724C13.8244 10.4724 14.0862 10.364 14.2792 10.1711L14.8547 9.59553Z" fill="#666AEC"/>
</svg>
