<svg width="91" height="31" viewBox="0 0 91 31" fill="none" xmlns="http://www.w3.org/2000/svg">
<g clip-path="url(#clip0_3_7091)">
<path fill-rule="evenodd" clip-rule="evenodd" d="M15.2523 9.60632C18.566 9.60632 21.2523 12.2926 21.2523 15.6063C21.2523 18.92 18.566 21.6063 15.2523 21.6063C11.9386 21.6063 9.25226 18.92 9.25226 15.6063C9.25226 12.2926 11.9386 9.60632 15.2523 9.60632ZM15.2521 12.6063C13.5953 12.6063 12.2521 13.9495 12.2521 15.6063C12.2521 17.2632 13.5953 18.6063 15.2521 18.6063C16.909 18.6063 18.2521 17.2632 18.2521 15.6063C18.2521 13.9495 16.909 12.6063 15.2521 12.6063ZM12.2522 30.6063C11.8772 30.6063 11.5622 30.3363 11.5022 29.9763L10.9472 26.0013C10.0022 25.6263 9.1922 25.1163 8.4122 24.5163L4.6772 26.0313C4.3472 26.1513 3.9422 26.0313 3.7622 25.7013L0.7622 20.5113C0.567201 20.1813 0.657201 19.7763 0.9422 19.5513L4.1072 17.0613L4.0022 15.6063L4.1072 14.1063L0.9422 11.6613C0.657201 11.4363 0.567201 11.0313 0.7622 10.7013L3.7622 5.51132C3.9422 5.18132 4.3472 5.04632 4.6772 5.18132L8.4122 6.68132C9.1922 6.09632 10.0022 5.58632 10.9472 5.21132L11.5022 1.23632C11.5622 0.876323 11.8772 0.606323 12.2522 0.606323H18.2522C18.6272 0.606323 18.9422 0.876323 19.0022 1.23632L19.5572 5.21132C20.5022 5.58632 21.3122 6.09632 22.0922 6.68132L25.8272 5.18132C26.1572 5.04632 26.5622 5.18132 26.7422 5.51132L29.7422 10.7013C29.9372 11.0313 29.8472 11.4363 29.5622 11.6613L26.3972 14.1063L26.5022 15.6063L26.3972 17.1063L29.5622 19.5513C29.8472 19.7763 29.9372 20.1813 29.7422 20.5113L26.7422 25.7013C26.5622 26.0313 26.1572 26.1663 25.8272 26.0313L22.0922 24.5313C21.3122 25.1163 20.5022 25.6263 19.5572 26.0013L19.0022 29.9763C18.9422 30.3363 18.6272 30.6063 18.2522 30.6063H12.2522ZM14.1272 3.60632L13.5722 7.52132C11.7722 7.89632 10.1822 8.85632 9.02724 10.1913L5.41224 8.63132L4.28724 10.5813L7.45224 12.9063C6.85224 14.6613 6.85224 16.5663 7.45224 18.3063L4.27224 20.6463L5.39724 22.5963L9.04224 21.0363C10.1972 22.3563 11.7722 23.3163 13.5572 23.6763L14.1122 27.6063H16.3922L16.9472 23.6913C18.7322 23.3163 20.3072 22.3563 21.4622 21.0363L25.1072 22.5963L26.2322 20.6463L23.0522 18.3213C23.6522 16.5663 23.6522 14.6613 23.0522 12.9063L26.2172 10.5813L25.0922 8.63132L21.4772 10.1913C20.3222 8.85632 18.7322 7.89632 16.9322 7.53631L16.3772 3.60632H14.1272Z" fill="#D9D9D9"/>
<mask id="mask0_3_7091" style="mask-type:alpha" maskUnits="userSpaceOnUse" x="0" y="0" width="30" height="31">
<path fill-rule="evenodd" clip-rule="evenodd" d="M15.2523 9.60632C18.566 9.60632 21.2523 12.2926 21.2523 15.6063C21.2523 18.92 18.566 21.6063 15.2523 21.6063C11.9386 21.6063 9.25226 18.92 9.25226 15.6063C9.25226 12.2926 11.9386 9.60632 15.2523 9.60632ZM15.2521 12.6063C13.5953 12.6063 12.2521 13.9495 12.2521 15.6063C12.2521 17.2632 13.5953 18.6063 15.2521 18.6063C16.909 18.6063 18.2521 17.2632 18.2521 15.6063C18.2521 13.9495 16.909 12.6063 15.2521 12.6063ZM12.2522 30.6063C11.8772 30.6063 11.5622 30.3363 11.5022 29.9763L10.9472 26.0013C10.0022 25.6263 9.1922 25.1163 8.4122 24.5163L4.6772 26.0313C4.3472 26.1513 3.9422 26.0313 3.7622 25.7013L0.7622 20.5113C0.567201 20.1813 0.657201 19.7763 0.9422 19.5513L4.1072 17.0613L4.0022 15.6063L4.1072 14.1063L0.9422 11.6613C0.657201 11.4363 0.567201 11.0313 0.7622 10.7013L3.7622 5.51132C3.9422 5.18132 4.3472 5.04632 4.6772 5.18132L8.4122 6.68132C9.1922 6.09632 10.0022 5.58632 10.9472 5.21132L11.5022 1.23632C11.5622 0.876323 11.8772 0.606323 12.2522 0.606323H18.2522C18.6272 0.606323 18.9422 0.876323 19.0022 1.23632L19.5572 5.21132C20.5022 5.58632 21.3122 6.09632 22.0922 6.68132L25.8272 5.18132C26.1572 5.04632 26.5622 5.18132 26.7422 5.51132L29.7422 10.7013C29.9372 11.0313 29.8472 11.4363 29.5622 11.6613L26.3972 14.1063L26.5022 15.6063L26.3972 17.1063L29.5622 19.5513C29.8472 19.7763 29.9372 20.1813 29.7422 20.5113L26.7422 25.7013C26.5622 26.0313 26.1572 26.1663 25.8272 26.0313L22.0922 24.5313C21.3122 25.1163 20.5022 25.6263 19.5572 26.0013L19.0022 29.9763C18.9422 30.3363 18.6272 30.6063 18.2522 30.6063H12.2522ZM14.1272 3.60632L13.5722 7.52132C11.7722 7.89632 10.1822 8.85632 9.02724 10.1913L5.41224 8.63132L4.28724 10.5813L7.45224 12.9063C6.85224 14.6613 6.85224 16.5663 7.45224 18.3063L4.27224 20.6463L5.39724 22.5963L9.04224 21.0363C10.1972 22.3563 11.7722 23.3163 13.5572 23.6763L14.1122 27.6063H16.3922L16.9472 23.6913C18.7322 23.3163 20.3072 22.3563 21.4622 21.0363L25.1072 22.5963L26.2322 20.6463L23.0522 18.3213C23.6522 16.5663 23.6522 14.6613 23.0522 12.9063L26.2172 10.5813L25.0922 8.63132L21.4772 10.1913C20.3222 8.85632 18.7322 7.89632 16.9322 7.53631L16.3772 3.60632H14.1272Z" fill="#D9D9D9"/>
</mask>
<g mask="url(#mask0_3_7091)">
</g>
<path fill-rule="evenodd" clip-rule="evenodd" d="M79.5859 18.9397H87.9193V22.273H82.9193V27.273H79.5859V18.9397ZM64.5859 18.9397H72.9193V27.273H69.5859V22.273H64.5859V18.9397ZM69.5859 3.9397H72.9193V12.273H64.5859V8.9397H69.5859V3.9397ZM87.9193 8.9397V12.273H79.5859V3.9397H82.9193V8.9397H87.9193Z" fill="#D9D9D9"/>
</g>
<defs>
<clipPath id="clip0_3_7091">
<rect width="91" height="31" fill="white"/>
</clipPath>
</defs>
</svg>
