<svg width="23" height="23" viewBox="0 0 23 23" fill="none" xmlns="http://www.w3.org/2000/svg">
<path fill-rule="evenodd" clip-rule="evenodd" d="M16.2283 17.25H5.87832V9.775C5.87832 6.9 8.17832 4.6 11.0533 4.6C13.9283 4.6 16.2283 6.9 16.2283 9.775V17.25ZM18.5283 16.1V9.775C18.5283 6.2445 16.0673 3.289 12.7783 2.507V1.725C12.7783 0.772308 12.0059 0 11.0533 0C10.1006 0 9.3283 0.772308 9.3283 1.725V2.507C6.0278 3.289 3.57829 6.2445 3.57829 9.775V16.1L1.2783 18.4V19.55H20.8283V18.4L18.5283 16.1ZM11.0533 23C12.3236 23 13.3533 21.9703 13.3533 20.7H8.75332C8.75332 21.9703 9.78306 23 11.0533 23Z" fill="#D9D9D9"/>
<mask id="mask0_3_6189" style="mask-type:alpha" maskUnits="userSpaceOnUse" x="1" y="0" width="20" height="23">
<path fill-rule="evenodd" clip-rule="evenodd" d="M16.2283 17.25H5.87832V9.775C5.87832 6.9 8.17832 4.6 11.0533 4.6C13.9283 4.6 16.2283 6.9 16.2283 9.775V17.25ZM18.5283 16.1V9.775C18.5283 6.2445 16.0673 3.289 12.7783 2.507V1.725C12.7783 0.772308 12.0059 0 11.0533 0C10.1006 0 9.3283 0.772308 9.3283 1.725V2.507C6.0278 3.289 3.57829 6.2445 3.57829 9.775V16.1L1.2783 18.4V19.55H20.8283V18.4L18.5283 16.1ZM11.0533 23C12.3236 23 13.3533 21.9703 13.3533 20.7H8.75332C8.75332 21.9703 9.78306 23 11.0533 23Z" fill="#D9D9D9"/>
</mask>
<g mask="url(#mask0_3_6189)">
</g>
</svg>
