<svg width="10" height="18" viewBox="0 0 10 18" fill="none" xmlns="http://www.w3.org/2000/svg">
<path d="M1.72954 0.316062C1.35181 -0.086847 0.718974 -0.107267 0.316062 0.270466C-0.086847 0.648196 -0.107267 1.28103 0.270466 1.68394L1.72954 0.316062ZM8.5 9L9.22954 9.68394L9.87073 9L9.22954 8.31606L8.5 9ZM0.270466 16.3161C-0.107267 16.719 -0.086847 17.3518 0.316062 17.7295C0.718974 18.1073 1.35181 18.0869 1.72954 17.6839L0.270466 16.3161ZM0.270466 1.68394L7.77046 9.68394L9.22954 8.31606L1.72954 0.316062L0.270466 1.68394ZM7.77046 8.31606L0.270466 16.3161L1.72954 17.6839L9.22954 9.68394L7.77046 8.31606Z" fill="white"/>
</svg>
