<svg width="11" height="18" viewBox="0 0 11 18" fill="none" xmlns="http://www.w3.org/2000/svg">
<path d="M8.70696 0.292892C9.09748 -0.0976307 9.73065 -0.0976307 10.1212 0.292892C10.5117 0.683417 10.5117 1.31658 10.1212 1.70711L8.70696 0.292892ZM1.41406 9L0.706953 9.70711L-0.000146866 9L0.706953 8.29289L1.41406 9ZM10.1212 16.2929C10.5117 16.6834 10.5117 17.3166 10.1212 17.7071C9.73065 18.0976 9.09748 18.0976 8.70696 17.7071L10.1212 16.2929ZM10.1212 1.70711L2.12117 9.70711L0.706953 8.29289L8.70696 0.292892L10.1212 1.70711ZM2.12117 8.29289L10.1212 16.2929L8.70696 17.7071L0.706953 9.70711L2.12117 8.29289Z" fill="white"/>
</svg>
