<svg width="48" height="48" viewBox="0 0 48 48" fill="none" xmlns="http://www.w3.org/2000/svg">
<g clip-path="url(#clip0_3_1517)">
<path fill-rule="evenodd" clip-rule="evenodd" d="M14.905 15.158H33.0945C34.3502 15.158 35.3681 16.1759 35.3681 17.4316V31.0738C35.3681 32.3295 34.3502 33.3475 33.0945 33.3475H14.905C13.6431 33.3475 12.6313 32.3243 12.6313 31.0738V17.4316C12.6313 16.1697 13.6431 15.158 14.905 15.158ZM23.9998 23.1159L33.0945 17.4316H14.905L23.9998 23.1159ZM14.905 31.0738H33.0945V20.126L23.9998 25.7988L14.905 20.126V31.0738Z" fill="#D9D9D9"/>
<mask id="mask0_3_1517" style="mask-type:alpha" maskUnits="userSpaceOnUse" x="12" y="15" width="24" height="19">
<path fill-rule="evenodd" clip-rule="evenodd" d="M14.905 15.158H33.0945C34.3502 15.158 35.3681 16.1759 35.3681 17.4316V31.0738C35.3681 32.3295 34.3502 33.3475 33.0945 33.3475H14.905C13.6431 33.3475 12.6313 32.3243 12.6313 31.0738V17.4316C12.6313 16.1697 13.6431 15.158 14.905 15.158ZM23.9998 23.1159L33.0945 17.4316H14.905L23.9998 23.1159ZM14.905 31.0738H33.0945V20.126L23.9998 25.7988L14.905 20.126V31.0738Z" fill="#D9D9D9"/>
</mask>
<g mask="url(#mask0_3_1517)">
</g>
</g>
<defs>
<clipPath id="clip0_3_1517">
<rect width="48" height="48" fill="white"/>
</clipPath>
</defs>
</svg>
