<svg width="144" height="38" viewBox="0 0 144 38" fill="none" xmlns="http://www.w3.org/2000/svg">
<g clip-path="url(#clip0_3_441)">
<rect width="38" height="38" rx="12" fill="#F7F7F7"/>
<path fill-rule="evenodd" clip-rule="evenodd" d="M11.8 12.8H14.5L16.3 11H21.7L23.5 12.8H26.2C27.1941 12.8 28 13.6059 28 14.6V25.4C28 26.3941 27.1941 27.2 26.2 27.2H11.8C10.8059 27.2 10 26.3941 10 25.4V14.6C10 13.6059 10.8059 12.8 11.8 12.8ZM19 15.5C16.5147 15.5 14.5 17.5147 14.5 20C14.5 22.4853 16.5147 24.5 19 24.5C21.4853 24.5 23.5 22.4853 23.5 20C23.5 17.5147 21.4853 15.5 19 15.5ZM19 17.3C20.4912 17.3 21.7 18.5088 21.7 20C21.7 21.4912 20.4912 22.7 19 22.7C17.5088 22.7 16.3 21.4912 16.3 20C16.3 18.5088 17.5088 17.3 19 17.3Z" fill="#D9D9D9"/>
<mask id="mask0_3_441" style="mask-type:alpha" maskUnits="userSpaceOnUse" x="10" y="11" width="18" height="17">
<path fill-rule="evenodd" clip-rule="evenodd" d="M11.8 12.8H14.5L16.3 11H21.7L23.5 12.8H26.2C27.1941 12.8 28 13.6059 28 14.6V25.4C28 26.3941 27.1941 27.2 26.2 27.2H11.8C10.8059 27.2 10 26.3941 10 25.4V14.6C10 13.6059 10.8059 12.8 11.8 12.8ZM19 15.5C16.5147 15.5 14.5 17.5147 14.5 20C14.5 22.4853 16.5147 24.5 19 24.5C21.4853 24.5 23.5 22.4853 23.5 20C23.5 17.5147 21.4853 15.5 19 15.5ZM19 17.3C20.4912 17.3 21.7 18.5088 21.7 20C21.7 21.4912 20.4912 22.7 19 22.7C17.5088 22.7 16.3 21.4912 16.3 20C16.3 18.5088 17.5088 17.3 19 17.3Z" fill="#D9D9D9"/>
</mask>
<g mask="url(#mask0_3_441)">
</g>
<rect x="53" width="38" height="38" rx="12" fill="#F7F7F7"/>
<path fill-rule="evenodd" clip-rule="evenodd" d="M77 17.5V14C77 13.4477 76.5523 13 76 13H64C63.4477 13 63 13.4477 63 14V24C63 24.5523 63.4477 25 64 25H76C76.5523 25 77 24.5523 77 24V20.5L81 24.5V13.5L77 17.5Z" fill="#8F92A1"/>
<rect x="106" width="38" height="38" rx="12" fill="#F7F7F7"/>
<path fill-rule="evenodd" clip-rule="evenodd" d="M132 20H126V26H124V20H118V18H124V12H126V18H132V20Z" fill="#8F92A1"/>
<mask id="mask1_3_441" style="mask-type:alpha" maskUnits="userSpaceOnUse" x="118" y="12" width="14" height="14">
<path fill-rule="evenodd" clip-rule="evenodd" d="M132 20H126V26H124V20H118V18H124V12H126V18H132V20Z" fill="#8F92A1"/>
</mask>
<g mask="url(#mask1_3_441)">
</g>
</g>
<defs>
<clipPath id="clip0_3_441">
<rect width="144" height="38" fill="white"/>
</clipPath>
</defs>
</svg>
