<svg width="37" height="37" viewBox="0 0 37 37" fill="none" xmlns="http://www.w3.org/2000/svg">
<path fill-rule="evenodd" clip-rule="evenodd" d="M18.5001 15.4167C16.0334 15.4167 13.6437 15.8021 11.4084 16.5267V21.3059C11.4084 21.9226 11.0538 22.4467 10.545 22.6934C9.0342 23.4488 7.6621 24.4201 6.42876 25.5455C6.16668 25.823 5.78127 25.9925 5.39585 25.9925C4.93335 25.9925 4.54793 25.8076 4.27043 25.5301L0.447084 21.7067C0.169584 21.4292 0 21.0438 0 20.6276C0 20.1959 0.169584 19.8105 0.447084 19.533C5.14918 15.0621 11.5009 12.3334 18.5001 12.3334C25.4992 12.3334 31.8509 15.0621 36.553 19.533C36.8305 19.8105 37.0001 20.1959 37.0001 20.6276C37.0001 21.0438 36.8305 21.4292 36.553 21.7067L32.7296 25.5301C32.4522 25.8076 32.0667 25.9925 31.6042 25.9925C31.2188 25.9925 30.8334 25.823 30.5559 25.5455C29.338 24.4201 27.966 23.4488 26.4551 22.6934C25.9463 22.4467 25.5918 21.9226 25.5918 21.3059V16.5267C23.3563 15.8021 20.9667 15.4167 18.5001 15.4167Z" fill="white"/>
</svg>
