<svg width="165" height="1024" viewBox="0 0 165 1024" fill="none" xmlns="http://www.w3.org/2000/svg">
<rect width="165" height="1024" fill="#666AEC"/>
<g clip-path="url(#clip0_3_543)">
<rect x="60" y="917" width="46" height="46" rx="11" stroke="white" stroke-opacity="0.2" stroke-width="2"/>
<path fill-rule="evenodd" clip-rule="evenodd" d="M85.08 943.59L87.67 941H78V939H87.67L85.08 936.41L86.5 935L91.5 940L86.5 945L85.08 943.59ZM90 931C91.1046 931 92 931.895 92 933V937.67L90 935.67V933H76V947H90V944.33L92 942.33V947C92 948.105 91.1046 949 90 949H76C74.89 949 74 948.1 74 947V933C74 931.89 74.89 931 76 931H90Z" fill="#D9D9D9"/>
<mask id="mask0_3_543" style="mask-type:alpha" maskUnits="userSpaceOnUse" x="74" y="931" width="18" height="18">
<path fill-rule="evenodd" clip-rule="evenodd" d="M85.08 943.59L87.67 941H78V939H87.67L85.08 936.41L86.5 935L91.5 940L86.5 945L85.08 943.59ZM90 931C91.1046 931 92 931.895 92 933V937.67L90 935.67V933H76V947H90V944.33L92 942.33V947C92 948.105 91.1046 949 90 949H76C74.89 949 74 948.1 74 947V933C74 931.89 74.89 931 76 931H90Z" fill="#D9D9D9"/>
</mask>
<g mask="url(#mask0_3_543)">
</g>
</g>
<g clip-path="url(#clip1_3_543)">
<rect x="59" y="194" width="48" height="48" rx="12" fill="white"/>
<path fill-rule="evenodd" clip-rule="evenodd" d="M79.3999 226.4V219.2H81.7999H84.1999H86.5999V226.4H90.1999V216.692L82.9999 209.492L75.7999 216.692V226.4H79.3999ZM82.9999 206.108L94.8919 218H92.5999V228.8H84.1999V221.6H81.7999V228.8H73.3999V218H71.1079L82.9999 206.108Z" fill="#D9D9D9"/>
<mask id="mask1_3_543" style="mask-type:alpha" maskUnits="userSpaceOnUse" x="71" y="206" width="24" height="23">
<path fill-rule="evenodd" clip-rule="evenodd" d="M79.3999 226.4V219.2H81.7999H84.1999H86.5999V226.4H90.1999V216.692L82.9999 209.492L75.7999 216.692V226.4H79.3999ZM82.9999 206.108L94.8919 218H92.5999V228.8H84.1999V221.6H81.7999V228.8H73.3999V218H71.1079L82.9999 206.108Z" fill="#D9D9D9"/>
</mask>
<g mask="url(#mask1_3_543)">
</g>
</g>
<g clip-path="url(#clip2_3_543)">
<rect x="59" y="282" width="48" height="48" rx="12" fill="white" fill-opacity="0.2"/>
<path fill-rule="evenodd" clip-rule="evenodd" d="M79.5335 304.8V307.2H77.1335V304.8H79.5335ZM84.3335 304.8V307.2H81.9335V304.8H84.3335ZM89.1335 304.8V307.2H86.7335V304.8H89.1335ZM91.5335 296.4C92.859 296.4 93.9335 297.475 93.9335 298.8V315.6C93.9335 316.926 92.859 318 91.5335 318H74.7335C73.4015 318 72.3335 316.92 72.3335 315.6V298.8C72.3335 297.475 73.408 296.4 74.7335 296.4H75.9335V294H78.3335V296.4H87.9335V294H90.3335V296.4H91.5335ZM91.5335 315.6V302.4H74.7335V315.6H91.5335ZM79.5335 309.6V312H77.1335V309.6H79.5335ZM84.3335 309.6V312H81.9335V309.6H84.3335ZM89.1335 309.6V312H86.7335V309.6H89.1335Z" fill="#D9D9D9"/>
</g>
<g clip-path="url(#clip3_3_543)">
<rect x="59" y="370" width="48" height="48" rx="12" fill="white" fill-opacity="0.2"/>
<path fill-rule="evenodd" clip-rule="evenodd" d="M73.4 384.667H92.6C93.9255 384.667 95 385.741 95 387.067V401.467C95 402.792 93.9255 403.867 92.6 403.867H73.4C72.068 403.867 71 402.787 71 401.467V387.067C71 385.735 72.068 384.667 73.4 384.667ZM83 393.067L92.6 387.067H73.4L83 393.067ZM73.4 401.467H92.6V389.911L83 395.899L73.4 389.911V401.467Z" fill="#D9D9D9"/>
<mask id="mask2_3_543" style="mask-type:alpha" maskUnits="userSpaceOnUse" x="71" y="384" width="24" height="20">
<path fill-rule="evenodd" clip-rule="evenodd" d="M73.4 384.667H92.6C93.9255 384.667 95 385.741 95 387.067V401.467C95 402.792 93.9255 403.867 92.6 403.867H73.4C72.068 403.867 71 402.787 71 401.467V387.067C71 385.735 72.068 384.667 73.4 384.667ZM83 393.067L92.6 387.067H73.4L83 393.067ZM73.4 401.467H92.6V389.911L83 395.899L73.4 389.911V401.467Z" fill="#D9D9D9"/>
</mask>
<g mask="url(#mask2_3_543)">
</g>
</g>
<g clip-path="url(#clip4_3_543)">
<rect x="59" y="458" width="48" height="48" rx="12" fill="white" fill-opacity="0.2"/>
<path fill-rule="evenodd" clip-rule="evenodd" d="M83.0002 471.333C85.9457 471.333 88.3335 473.721 88.3335 476.667C88.3335 479.612 85.9457 482 83.0002 482C80.0546 482 77.6668 479.612 77.6668 476.667C77.6668 473.721 80.0546 471.333 83.0002 471.333ZM83.0002 474C81.5274 474 80.3335 475.194 80.3335 476.667C80.3335 478.139 81.5274 479.333 83.0002 479.333C84.4729 479.333 85.6668 478.139 85.6668 476.667C85.6668 475.194 84.4729 474 83.0002 474ZM83.0002 483.333C86.5602 483.333 93.6668 485.107 93.6668 488.667V492.667H72.3335V488.667C72.3335 485.107 79.4402 483.333 83.0002 483.333ZM83.0001 485.867C79.0401 485.867 74.8668 487.813 74.8668 488.667V490.133H91.1335V488.667C91.1335 487.813 86.9601 485.867 83.0001 485.867Z" fill="#D9D9D9"/>
<mask id="mask3_3_543" style="mask-type:alpha" maskUnits="userSpaceOnUse" x="72" y="471" width="22" height="22">
<path fill-rule="evenodd" clip-rule="evenodd" d="M83.0002 471.333C85.9457 471.333 88.3335 473.721 88.3335 476.667C88.3335 479.612 85.9457 482 83.0002 482C80.0546 482 77.6668 479.612 77.6668 476.667C77.6668 473.721 80.0546 471.333 83.0002 471.333ZM83.0002 474C81.5274 474 80.3335 475.194 80.3335 476.667C80.3335 478.139 81.5274 479.333 83.0002 479.333C84.4729 479.333 85.6668 478.139 85.6668 476.667C85.6668 475.194 84.4729 474 83.0002 474ZM83.0002 483.333C86.5602 483.333 93.6668 485.107 93.6668 488.667V492.667H72.3335V488.667C72.3335 485.107 79.4402 483.333 83.0002 483.333ZM83.0001 485.867C79.0401 485.867 74.8668 487.813 74.8668 488.667V490.133H91.1335V488.667C91.1335 487.813 86.9601 485.867 83.0001 485.867Z" fill="#D9D9D9"/>
</mask>
<g mask="url(#mask3_3_543)">
</g>
</g>
<g clip-path="url(#clip5_3_543)">
<rect x="59" y="546" width="48" height="48" rx="12" fill="white" fill-opacity="0.2"/>
<path fill-rule="evenodd" clip-rule="evenodd" d="M82.9999 565.2C85.6509 565.2 87.7999 567.349 87.7999 570C87.7999 572.651 85.6509 574.8 82.9999 574.8C80.349 574.8 78.1999 572.651 78.1999 570C78.1999 567.349 80.349 565.2 82.9999 565.2ZM82.9999 567.6C81.6744 567.6 80.5999 568.675 80.5999 570C80.5999 571.325 81.6744 572.4 82.9999 572.4C84.3254 572.4 85.3999 571.325 85.3999 570C85.3999 568.675 84.3254 567.6 82.9999 567.6ZM80.5999 582C80.2999 582 80.0479 581.784 79.9999 581.496L79.5559 578.316C78.7999 578.016 78.1519 577.608 77.5279 577.128L74.5399 578.34C74.2759 578.436 73.9519 578.34 73.8079 578.076L71.4079 573.924C71.2519 573.66 71.3239 573.336 71.5519 573.156L74.0839 571.164L73.9999 570L74.0839 568.8L71.5519 566.844C71.3239 566.664 71.2519 566.34 71.4079 566.076L73.8079 561.924C73.9519 561.66 74.2759 561.552 74.5399 561.66L77.5279 562.86C78.1519 562.392 78.7999 561.984 79.5559 561.684L79.9999 558.504C80.0479 558.216 80.2999 558 80.5999 558H85.3999C85.6999 558 85.9519 558.216 85.9999 558.504L86.4439 561.684C87.1999 561.984 87.8479 562.392 88.4719 562.86L91.4599 561.66C91.7239 561.552 92.0479 561.66 92.1919 561.924L94.5919 566.076C94.7479 566.34 94.6759 566.664 94.4479 566.844L91.9159 568.8L91.9999 570L91.9159 571.2L94.4479 573.156C94.6759 573.336 94.7479 573.66 94.5919 573.924L92.1919 578.076C92.0479 578.34 91.7239 578.448 91.4599 578.34L88.4719 577.14C87.8479 577.608 87.1999 578.016 86.4439 578.316L85.9999 581.496C85.9519 581.784 85.6999 582 85.3999 582H80.5999ZM82.0999 560.4L81.6559 563.532C80.2159 563.832 78.9439 564.6 78.0199 565.668L75.1279 564.42L74.2279 565.98L76.7599 567.84C76.2799 569.244 76.2799 570.768 76.7599 572.16L74.2159 574.032L75.1159 575.592L78.0319 574.344C78.9559 575.4 80.2159 576.168 81.6439 576.456L82.0879 579.6H83.9119L84.3559 576.468C85.7839 576.168 87.0439 575.4 87.9679 574.344L90.8839 575.592L91.7839 574.032L89.2399 572.172C89.7199 570.768 89.7199 569.244 89.2399 567.84L91.7719 565.98L90.8719 564.42L87.9799 565.668C87.0559 564.6 85.7839 563.832 84.3439 563.544L83.8999 560.4H82.0999Z" fill="#D9D9D9"/>
<mask id="mask4_3_543" style="mask-type:alpha" maskUnits="userSpaceOnUse" x="71" y="558" width="24" height="24">
<path fill-rule="evenodd" clip-rule="evenodd" d="M82.9999 565.2C85.6509 565.2 87.7999 567.349 87.7999 570C87.7999 572.651 85.6509 574.8 82.9999 574.8C80.349 574.8 78.1999 572.651 78.1999 570C78.1999 567.349 80.349 565.2 82.9999 565.2ZM82.9999 567.6C81.6744 567.6 80.5999 568.675 80.5999 570C80.5999 571.325 81.6744 572.4 82.9999 572.4C84.3254 572.4 85.3999 571.325 85.3999 570C85.3999 568.675 84.3254 567.6 82.9999 567.6ZM80.5999 582C80.2999 582 80.0479 581.784 79.9999 581.496L79.5559 578.316C78.7999 578.016 78.1519 577.608 77.5279 577.128L74.5399 578.34C74.2759 578.436 73.9519 578.34 73.8079 578.076L71.4079 573.924C71.2519 573.66 71.3239 573.336 71.5519 573.156L74.0839 571.164L73.9999 570L74.0839 568.8L71.5519 566.844C71.3239 566.664 71.2519 566.34 71.4079 566.076L73.8079 561.924C73.9519 561.66 74.2759 561.552 74.5399 561.66L77.5279 562.86C78.1519 562.392 78.7999 561.984 79.5559 561.684L79.9999 558.504C80.0479 558.216 80.2999 558 80.5999 558H85.3999C85.6999 558 85.9519 558.216 85.9999 558.504L86.4439 561.684C87.1999 561.984 87.8479 562.392 88.4719 562.86L91.4599 561.66C91.7239 561.552 92.0479 561.66 92.1919 561.924L94.5919 566.076C94.7479 566.34 94.6759 566.664 94.4479 566.844L91.9159 568.8L91.9999 570L91.9159 571.2L94.4479 573.156C94.6759 573.336 94.7479 573.66 94.5919 573.924L92.1919 578.076C92.0479 578.34 91.7239 578.448 91.4599 578.34L88.4719 577.14C87.8479 577.608 87.1999 578.016 86.4439 578.316L85.9999 581.496C85.9519 581.784 85.6999 582 85.3999 582H80.5999ZM82.0999 560.4L81.6559 563.532C80.2159 563.832 78.9439 564.6 78.0199 565.668L75.1279 564.42L74.2279 565.98L76.7599 567.84C76.2799 569.244 76.2799 570.768 76.7599 572.16L74.2159 574.032L75.1159 575.592L78.0319 574.344C78.9559 575.4 80.2159 576.168 81.6439 576.456L82.0879 579.6H83.9119L84.3559 576.468C85.7839 576.168 87.0439 575.4 87.9679 574.344L90.8839 575.592L91.7839 574.032L89.2399 572.172C89.7199 570.768 89.7199 569.244 89.2399 567.84L91.7719 565.98L90.8719 564.42L87.9799 565.668C87.0559 564.6 85.7839 563.832 84.3439 563.544L83.8999 560.4H82.0999Z" fill="#D9D9D9"/>
</mask>
<g mask="url(#mask4_3_543)">
</g>
</g>
<path d="M70.2294 75.7732C69.7204 75.2042 69.4204 74.4788 69.3791 73.7164V64.2098C69.4203 63.4474 69.7203 62.7218 70.2294 62.153L70.9019 61.4803C71.1274 61.2543 71.254 60.948 71.254 60.6286C71.254 60.3093 71.1274 60.003 70.9019 59.777L63.7689 52.6404C63.5427 52.4151 63.2365 52.2886 62.9172 52.2886C62.598 52.2886 62.2918 52.4151 62.0656 52.6404L59.3504 55.3566C59.1259 55.5832 59 55.8893 59 56.2083C59 56.5273 59.1259 56.8333 59.3504 57.0599L64.4413 62.1528C64.9514 62.7211 65.2518 63.4469 65.2926 64.2096V73.7162C65.2519 74.4785 64.9515 75.2038 64.4413 75.7716L59.3504 80.8664C59.1259 81.093 59 81.3992 59 81.7179C59 82.037 59.1259 82.3431 59.3504 82.5697L62.0656 85.2858C62.2918 85.5111 62.598 85.6376 62.9172 85.6376C63.2364 85.6376 63.5427 85.5111 63.7689 85.2858L70.9019 78.1487C71.1274 77.9225 71.254 77.6164 71.254 77.2972C71.254 76.9777 71.1274 76.6716 70.9019 76.4456L70.2294 75.7732Z" fill="white"/>
<path d="M89.8323 81.7659C89.2637 82.2751 88.5388 82.5756 87.7766 82.6177H78.2763C77.5137 82.5756 76.7881 82.2753 76.2188 81.7659L75.548 81.0914C75.321 80.8668 75.0147 80.7409 74.6955 80.7409C74.3763 80.7409 74.07 80.8668 73.8431 81.0914L66.711 88.228C66.4858 88.4547 66.3594 88.7612 66.3594 89.0807C66.3594 89.4002 66.4858 89.7067 66.711 89.9332L69.4261 92.6495C69.6528 92.8741 69.959 93 70.278 93C70.5971 93 70.9032 92.8741 71.1299 92.6495L76.2197 87.554C76.7888 87.045 77.5142 86.7448 78.2765 86.7027H87.7796C88.5417 86.7445 89.2667 87.0448 89.8352 87.554L94.9273 92.6495C95.1539 92.8741 95.4598 93 95.7788 93C96.0976 93 96.4037 92.8741 96.6301 92.6495L99.3453 89.9332C99.5706 89.7067 99.6969 89.4002 99.6969 89.0807C99.6969 88.7612 99.5706 88.4547 99.3453 88.228L92.208 81.091C91.9816 80.8664 91.6757 80.7405 91.3569 80.7405C91.0381 80.7405 90.732 80.8664 90.5056 81.091L89.8323 81.7659Z" fill="white"/>
<path d="M95.9938 62.2264C96.5042 62.7958 96.8051 63.5225 96.8465 64.2862V73.7891C96.8049 74.5524 96.504 75.2785 95.9938 75.8473L95.3212 76.5215C95.0963 76.7479 94.9702 77.0541 94.9702 77.3733C94.9702 77.6923 95.0963 77.9984 95.3212 78.2248L102.456 85.3605C102.682 85.5858 102.989 85.7122 103.308 85.7122C103.627 85.7122 103.933 85.5858 104.159 85.3605L106.874 82.6429C107.1 82.4167 107.226 82.1104 107.226 81.7911C107.226 81.4719 107.1 81.1655 106.874 80.9393L101.785 75.8464C101.274 75.2776 100.973 74.5515 100.931 73.7882L100.933 64.2853C100.974 63.5216 101.274 62.7949 101.785 62.2254L106.874 57.1326C107.1 56.9068 107.226 56.6009 107.226 56.2819C107.226 55.9629 107.1 55.6569 106.874 55.4311L104.159 52.7134C104.047 52.6015 103.915 52.5127 103.769 52.4522C103.622 52.3917 103.466 52.3605 103.308 52.3605C103.15 52.3605 102.993 52.3917 102.847 52.4522C102.701 52.5127 102.568 52.6015 102.456 52.7134L95.3212 59.8488C95.0963 60.0752 94.9702 60.3814 94.9702 60.7005C94.9702 61.0197 95.0963 61.3259 95.3212 61.5523L95.9938 62.2264Z" fill="white"/>
<path d="M76.3909 56.2338C76.9593 55.7239 77.6847 55.4234 78.447 55.382H87.9482C88.7103 55.4241 89.4353 55.7245 90.004 56.2338L90.6781 56.9078C90.7897 57.0197 90.9224 57.1084 91.0684 57.169C91.2144 57.2295 91.3709 57.2606 91.5289 57.2606C91.687 57.2606 91.8436 57.2295 91.9895 57.169C92.1355 57.1084 92.2682 57.0197 92.38 56.9078L99.5139 49.7708C99.739 49.5443 99.8653 49.2378 99.8653 48.9183C99.8653 48.5988 99.739 48.2923 99.5139 48.0657L96.7987 45.3527C96.5728 45.1269 96.2664 45 95.947 45C95.6275 45 95.3212 45.1269 95.0952 45.3527L90.0042 50.4456C89.4355 50.9549 88.7105 51.2553 87.9484 51.2973H78.447C77.6847 51.256 76.9593 50.9555 76.3909 50.4456L71.3 45.3527C71.0733 45.1282 70.7672 45.0023 70.4482 45.0023C70.1292 45.0023 69.8231 45.1282 69.5964 45.3527L66.8812 48.0689C66.6561 48.2955 66.5298 48.6019 66.5298 48.9214C66.5298 49.2408 66.6561 49.5472 66.8812 49.7738L74.0136 56.9076C74.2395 57.1335 74.5459 57.2604 74.8653 57.2604C75.1848 57.2604 75.4912 57.1335 75.7171 56.9076L76.3909 56.2338Z" fill="white"/>
<defs>
<clipPath id="clip0_3_543">
<rect width="48" height="48" fill="white" transform="translate(59 916)"/>
</clipPath>
<clipPath id="clip1_3_543">
<rect width="48" height="48" fill="white" transform="translate(59 194)"/>
</clipPath>
<clipPath id="clip2_3_543">
<rect width="48" height="48" fill="white" transform="translate(59 282)"/>
</clipPath>
<clipPath id="clip3_3_543">
<rect width="48" height="48" fill="white" transform="translate(59 370)"/>
</clipPath>
<clipPath id="clip4_3_543">
<rect width="48" height="48" fill="white" transform="translate(59 458)"/>
</clipPath>
<clipPath id="clip5_3_543">
<rect width="48" height="48" fill="white" transform="translate(59 546)"/>
</clipPath>
</defs>
</svg>
