<svg width="37" height="37" viewBox="0 0 37 37" fill="none" xmlns="http://www.w3.org/2000/svg">
<path fill-rule="evenodd" clip-rule="evenodd" d="M31.1579 17.5263C31.1579 19.8437 30.4958 22.0053 29.4053 23.9137L27.01 21.5184C27.5358 20.311 27.8474 18.9674 27.8474 17.5263H31.1579ZM23.3684 17.8379L11.6842 6.19263V5.8421C11.6842 2.6156 14.2998 0 17.5263 0C20.7528 0 23.3684 2.6156 23.3684 5.8421V17.5263V17.8379ZM2.47316 1.94737L35.0526 34.5268L32.5794 37L24.42 28.8405C22.9205 29.7363 21.2458 30.3399 19.4737 30.6126V37H15.579V30.6126C9.19157 29.6584 3.89474 24.1669 3.89474 17.5263H7.20526C7.20526 23.3684 12.1516 27.4578 17.5263 27.4578C19.1037 27.4578 20.6421 27.0879 22.0247 26.4452L18.7921 23.2126L17.5263 23.3684C14.2998 23.3684 11.6842 20.7528 11.6842 17.5263V16.1242L0 4.42052L2.47316 1.94737Z" fill="#D9D9D9"/>
</svg>
