<svg width="18" height="18" viewBox="0 0 18 18" fill="none" xmlns="http://www.w3.org/2000/svg">
<path fill-rule="evenodd" clip-rule="evenodd" d="M9.09 14.695L9 14.785L8.901 14.695C4.626 10.816 1.8 8.25095 1.8 5.64995C1.8 3.84995 3.15 2.49995 4.95 2.49995C6.336 2.49995 7.686 3.39995 8.163 4.62395H9.837C10.314 3.39995 11.664 2.49995 13.05 2.49995C14.85 2.49995 16.2 3.84995 16.2 5.64995C16.2 8.25095 13.374 10.816 9.09 14.695ZM13.05 0.699951C11.484 0.699951 9.981 1.42895 9 2.57195C8.019 1.42895 6.516 0.699951 4.95 0.699951C2.178 0.699951 0 2.86895 0 5.64995C0 9.04295 3.06 11.824 7.695 16.027L9 17.215L10.305 16.027C14.94 11.824 18 9.04295 18 5.64995C18 2.86895 15.822 0.699951 13.05 0.699951Z" fill="#D9D9D9"/>
<mask id="mask0_3_178" style="mask-type:alpha" maskUnits="userSpaceOnUse" x="0" y="0" width="18" height="18">
<path fill-rule="evenodd" clip-rule="evenodd" d="M9.09 14.695L9 14.785L8.901 14.695C4.626 10.816 1.8 8.25095 1.8 5.64995C1.8 3.84995 3.15 2.49995 4.95 2.49995C6.336 2.49995 7.686 3.39995 8.163 4.62395H9.837C10.314 3.39995 11.664 2.49995 13.05 2.49995C14.85 2.49995 16.2 3.84995 16.2 5.64995C16.2 8.25095 13.374 10.816 9.09 14.695ZM13.05 0.699951C11.484 0.699951 9.981 1.42895 9 2.57195C8.019 1.42895 6.516 0.699951 4.95 0.699951C2.178 0.699951 0 2.86895 0 5.64995C0 9.04295 3.06 11.824 7.695 16.027L9 17.215L10.305 16.027C14.94 11.824 18 9.04295 18 5.64995C18 2.86895 15.822 0.699951 13.05 0.699951Z" fill="#D9D9D9"/>
</mask>
<g mask="url(#mask0_3_178)">
</g>
</svg>
