<svg width="23" height="23" viewBox="0 0 23 23" fill="none" xmlns="http://www.w3.org/2000/svg">
<path fill-rule="evenodd" clip-rule="evenodd" d="M11.5005 1.27781C14.3233 1.27781 16.6117 3.56613 16.6117 6.38892C16.6117 9.21171 14.3233 11.5001 11.5005 11.5001C8.67774 11.5001 6.38942 9.21171 6.38942 6.38892C6.38942 3.56613 8.67774 1.27781 11.5005 1.27781ZM11.5005 3.83336C10.0891 3.83336 8.94497 4.97753 8.94497 6.38893C8.94497 7.80032 10.0891 8.94448 11.5005 8.94448C12.9119 8.94448 14.0561 7.80032 14.0561 6.38893C14.0561 4.97753 12.9119 3.83336 11.5005 3.83336ZM11.5006 12.7778C14.9122 12.7778 21.7227 14.4773 21.7227 17.8889V21.7223H1.2783V17.8889C1.2783 14.4773 8.08886 12.7778 11.5006 12.7778ZM11.5005 15.2056C7.7055 15.2056 3.70605 17.0712 3.70605 17.8889V19.2945H19.2949V17.8889C19.2949 17.0712 15.2955 15.2056 11.5005 15.2056Z" fill="#D9D9D9"/>
<mask id="mask0_3_6170" style="mask-type:alpha" maskUnits="userSpaceOnUse" x="1" y="1" width="21" height="21">
<path fill-rule="evenodd" clip-rule="evenodd" d="M11.5005 1.27781C14.3233 1.27781 16.6117 3.56613 16.6117 6.38892C16.6117 9.21171 14.3233 11.5001 11.5005 11.5001C8.67774 11.5001 6.38942 9.21171 6.38942 6.38892C6.38942 3.56613 8.67774 1.27781 11.5005 1.27781ZM11.5005 3.83336C10.0891 3.83336 8.94497 4.97753 8.94497 6.38893C8.94497 7.80032 10.0891 8.94448 11.5005 8.94448C12.9119 8.94448 14.0561 7.80032 14.0561 6.38893C14.0561 4.97753 12.9119 3.83336 11.5005 3.83336ZM11.5006 12.7778C14.9122 12.7778 21.7227 14.4773 21.7227 17.8889V21.7223H1.2783V17.8889C1.2783 14.4773 8.08886 12.7778 11.5006 12.7778ZM11.5005 15.2056C7.7055 15.2056 3.70605 17.0712 3.70605 17.8889V19.2945H19.2949V17.8889C19.2949 17.0712 15.2955 15.2056 11.5005 15.2056Z" fill="#D9D9D9"/>
</mask>
<g mask="url(#mask0_3_6170)">
</g>
</svg>
