<svg width="54" height="18" viewBox="0 0 54 18" fill="none" xmlns="http://www.w3.org/2000/svg">
<g clip-path="url(#clip0_3_1109)">
<path fill-rule="evenodd" clip-rule="evenodd" d="M38 2H43V4H40V7H38V2ZM47 2H52V7H50V4H47V2ZM50 11H52V16H47V14H50V11ZM43 14V16H38V11H40V14H43Z" fill="#D9D9D9"/>
<path fill-rule="evenodd" clip-rule="evenodd" d="M9.00005 5.4C10.9883 5.4 12.6 7.01177 12.6 9C12.6 10.9882 10.9883 12.6 9.00005 12.6C7.01182 12.6 5.40005 10.9882 5.40005 9C5.40005 7.01177 7.01182 5.4 9.00005 5.4ZM9.00005 7.2C8.00594 7.2 7.20005 8.00589 7.20005 9C7.20005 9.99411 8.00594 10.8 9.00005 10.8C9.99416 10.8 10.8001 9.99411 10.8001 9C10.8001 8.00589 9.99416 7.2 9.00005 7.2ZM7.20005 18C6.97505 18 6.78605 17.838 6.75005 17.622L6.41705 15.237C5.85005 15.012 5.36405 14.706 4.89605 14.346L2.65505 15.255C2.45705 15.327 2.21405 15.255 2.10605 15.057L0.306051 11.943C0.189051 11.745 0.243051 11.502 0.41405 11.367L2.31305 9.873L2.25005 9L2.31305 8.1L0.41405 6.633C0.243051 6.498 0.189051 6.255 0.306051 6.057L2.10605 2.943C2.21405 2.745 2.45705 2.664 2.65505 2.745L4.89605 3.645C5.36405 3.294 5.85005 2.988 6.41705 2.763L6.75005 0.378C6.78605 0.162 6.97505 0 7.20005 0H10.8001C11.0251 0 11.2141 0.162 11.2501 0.378L11.5831 2.763C12.1501 2.988 12.6361 3.294 13.1041 3.645L15.3451 2.745C15.5431 2.664 15.7861 2.745 15.8941 2.943L17.6941 6.057C17.8111 6.255 17.7571 6.498 17.5861 6.633L15.6871 8.1L15.7501 9L15.6871 9.9L17.5861 11.367C17.7571 11.502 17.8111 11.745 17.6941 11.943L15.8941 15.057C15.7861 15.255 15.5431 15.336 15.3451 15.255L13.1041 14.355C12.6361 14.706 12.1501 15.012 11.5831 15.237L11.2501 17.622C11.2141 17.838 11.0251 18 10.8001 18H7.20005ZM8.32505 1.8L7.99205 4.149C6.91205 4.374 5.95805 4.95 5.26505 5.751L3.09605 4.815L2.42105 5.985L4.32005 7.38C3.96005 8.433 3.96005 9.576 4.32005 10.62L2.41205 12.024L3.08705 13.194L5.27405 12.258C5.96705 13.05 6.91205 13.626 7.98305 13.842L8.31605 16.2H9.68405L10.0171 13.851C11.0881 13.626 12.0331 13.05 12.7261 12.258L14.9131 13.194L15.588 12.024L13.68 10.629C14.0401 9.576 14.0401 8.433 13.68 7.38L15.5791 5.985L14.904 4.815L12.7351 5.751C12.0421 4.95 11.0881 4.374 10.0081 4.158L9.67505 1.8H8.32505Z" fill="#D9D9D9"/>
<mask id="mask0_3_1109" style="mask-type:alpha" maskUnits="userSpaceOnUse" x="0" y="0" width="18" height="18">
<path fill-rule="evenodd" clip-rule="evenodd" d="M9.00005 5.4C10.9883 5.4 12.6 7.01177 12.6 9C12.6 10.9882 10.9883 12.6 9.00005 12.6C7.01182 12.6 5.40005 10.9882 5.40005 9C5.40005 7.01177 7.01182 5.4 9.00005 5.4ZM9.00005 7.2C8.00594 7.2 7.20005 8.00589 7.20005 9C7.20005 9.99411 8.00594 10.8 9.00005 10.8C9.99416 10.8 10.8001 9.99411 10.8001 9C10.8001 8.00589 9.99416 7.2 9.00005 7.2ZM7.20005 18C6.97505 18 6.78605 17.838 6.75005 17.622L6.41705 15.237C5.85005 15.012 5.36405 14.706 4.89605 14.346L2.65505 15.255C2.45705 15.327 2.21405 15.255 2.10605 15.057L0.306051 11.943C0.189051 11.745 0.243051 11.502 0.41405 11.367L2.31305 9.873L2.25005 9L2.31305 8.1L0.41405 6.633C0.243051 6.498 0.189051 6.255 0.306051 6.057L2.10605 2.943C2.21405 2.745 2.45705 2.664 2.65505 2.745L4.89605 3.645C5.36405 3.294 5.85005 2.988 6.41705 2.763L6.75005 0.378C6.78605 0.162 6.97505 0 7.20005 0H10.8001C11.0251 0 11.2141 0.162 11.2501 0.378L11.5831 2.763C12.1501 2.988 12.6361 3.294 13.1041 3.645L15.3451 2.745C15.5431 2.664 15.7861 2.745 15.8941 2.943L17.6941 6.057C17.8111 6.255 17.7571 6.498 17.5861 6.633L15.6871 8.1L15.7501 9L15.6871 9.9L17.5861 11.367C17.7571 11.502 17.8111 11.745 17.6941 11.943L15.8941 15.057C15.7861 15.255 15.5431 15.336 15.3451 15.255L13.1041 14.355C12.6361 14.706 12.1501 15.012 11.5831 15.237L11.2501 17.622C11.2141 17.838 11.0251 18 10.8001 18H7.20005ZM8.32505 1.8L7.99205 4.149C6.91205 4.374 5.95805 4.95 5.26505 5.751L3.09605 4.815L2.42105 5.985L4.32005 7.38C3.96005 8.433 3.96005 9.576 4.32005 10.62L2.41205 12.024L3.08705 13.194L5.27405 12.258C5.96705 13.05 6.91205 13.626 7.98305 13.842L8.31605 16.2H9.68405L10.0171 13.851C11.0881 13.626 12.0331 13.05 12.7261 12.258L14.9131 13.194L15.588 12.024L13.68 10.629C14.0401 9.576 14.0401 8.433 13.68 7.38L15.5791 5.985L14.904 4.815L12.7351 5.751C12.0421 4.95 11.0881 4.374 10.0081 4.158L9.67505 1.8H8.32505Z" fill="#D9D9D9"/>
</mask>
<g mask="url(#mask0_3_1109)">
</g>
</g>
<defs>
<clipPath id="clip0_3_1109">
<rect width="54" height="18" fill="white"/>
</clipPath>
</defs>
</svg>
