<svg width="697" height="768" viewBox="0 0 697 768" fill="none" xmlns="http://www.w3.org/2000/svg">
<rect x="78" width="540" height="768" rx="8" fill="#1E1F20" fill-opacity="0.3"/>
<g clip-path="url(#clip0_3_7329)">
<rect x="1" y="361" width="46" height="46" rx="11" stroke="white" stroke-opacity="0.2" stroke-width="2"/>
<path d="M26.2929 376.293C26.6834 375.902 27.3166 375.902 27.7071 376.293C28.0976 376.683 28.0976 377.317 27.7071 377.707L26.2929 376.293ZM19 385L18.2929 385.707L17.5858 385L18.2929 384.293L19 385ZM27.7071 392.293C28.0976 392.683 28.0976 393.317 27.7071 393.707C27.3166 394.098 26.6834 394.098 26.2929 393.707L27.7071 392.293ZM27.7071 377.707L19.7071 385.707L18.2929 384.293L26.2929 376.293L27.7071 377.707ZM19.7071 384.293L27.7071 392.293L26.2929 393.707L18.2929 385.707L19.7071 384.293Z" fill="white"/>
</g>
<rect x="648" y="360" width="48" height="48" rx="12" stroke="white" stroke-opacity="0.2" stroke-width="2"/>
<path d="M669.73 376.316C669.352 375.913 668.719 375.893 668.316 376.27C667.913 376.648 667.893 377.281 668.27 377.684L669.73 376.316ZM676.5 385L677.23 385.684L677.871 385L677.23 384.316L676.5 385ZM668.27 392.316C667.893 392.719 667.913 393.352 668.316 393.73C668.719 394.107 669.352 394.087 669.73 393.684L668.27 392.316ZM668.27 377.684L675.77 385.684L677.23 384.316L669.73 376.316L668.27 377.684ZM675.77 384.316L668.27 392.316L669.73 393.684L677.23 385.684L675.77 384.316Z" fill="white"/>
<defs>
<clipPath id="clip0_3_7329">
<rect width="48" height="48" fill="white" transform="translate(0 360)"/>
</clipPath>
</defs>
</svg>
